<svg width="90" height="90" viewBox="0 0 90 90" fill="none" xmlns="http://www.w3.org/2000/svg">
<path d="M78.0768 5.625H12.3539C8.7627 5.625 5.625 8.20898 5.625 11.758V77.6268C5.625 81.1951 8.7627 84.375 12.3539 84.375H78.0574C81.668 84.375 84.375 81.174 84.375 77.6268V11.758C84.3961 8.20898 81.668 5.625 78.0768 5.625ZM30.0357 71.267H18.7541V36.1898H30.0357V71.267ZM24.7852 30.8566H24.7043C21.0937 30.8566 18.7559 28.1689 18.7559 24.8045C18.7559 21.3785 21.1553 18.7541 24.8467 18.7541C28.5381 18.7541 30.7969 21.3592 30.8777 24.8045C30.876 28.1689 28.5381 30.8566 24.7852 30.8566ZM71.267 71.267H59.9854V52.0875C59.9854 47.4926 58.3436 44.3531 54.2619 44.3531C51.1436 44.3531 49.2979 46.4625 48.477 48.5174C48.1693 49.2557 48.0867 50.2611 48.0867 51.2877V71.267H36.8051V36.1898H48.0867V41.0713C49.7285 38.7334 52.2932 35.3689 58.2609 35.3689C65.6666 35.3689 71.2688 40.2504 71.2688 50.7744L71.267 71.267Z" fill="#0A66C2"/>
</svg>
