<svg width="90" height="90" viewBox="0 0 90 90" fill="none" xmlns="http://www.w3.org/2000/svg">
<path d="M45 5.625C23.2559 5.625 5.625 23.7129 5.625 46.002C5.625 63.8438 16.9102 78.9609 32.5547 84.3047C32.7741 84.3524 32.9981 84.3759 33.2227 84.375C34.6816 84.375 35.2441 83.3027 35.2441 82.3711C35.2441 81.4043 35.209 78.873 35.1914 75.498C33.8889 75.8034 32.5565 75.9626 31.2188 75.9727C23.6426 75.9727 21.9199 70.084 21.9199 70.084C20.127 65.4258 17.543 64.1777 17.543 64.1777C14.1152 61.7695 17.5254 61.6992 17.7891 61.6992H17.8066C21.7617 62.0508 23.8359 65.8828 23.8359 65.8828C25.8047 69.3281 28.4414 70.2949 30.7969 70.2949C32.3544 70.2638 33.8878 69.9044 35.2969 69.2402C35.6484 66.6387 36.668 64.8633 37.793 63.8438C29.0566 62.8242 19.8633 59.3613 19.8633 43.8926C19.8633 39.4805 21.3926 35.877 23.9062 33.0645C23.502 32.0449 22.1484 27.9316 24.293 22.377C24.5806 22.3081 24.8763 22.2786 25.1719 22.2891C26.5957 22.2891 29.8125 22.834 35.1211 26.5254C41.5715 24.7207 48.3934 24.7207 54.8438 26.5254C60.1523 22.834 63.3691 22.2891 64.793 22.2891C65.0886 22.2786 65.3842 22.3081 65.6719 22.377C67.8164 27.9316 66.4629 32.0449 66.0586 33.0645C68.5723 35.8945 70.1016 39.498 70.1016 43.8926C70.1016 59.3965 60.8906 62.8066 52.1191 63.8086C53.5254 65.0566 54.791 67.5176 54.791 71.2793C54.791 76.6758 54.7383 81.0352 54.7383 82.3535C54.7383 83.3027 55.2832 84.375 56.7422 84.375C56.9784 84.376 57.214 84.3525 57.4453 84.3047C73.1074 78.9609 84.375 63.8262 84.375 46.002C84.375 23.7129 66.7441 5.625 45 5.625Z" fill="#EEEEEE"/>
</svg>
