<svg width="90" height="90" viewBox="0 0 90 90" fill="none" xmlns="http://www.w3.org/2000/svg">
<path d="M61.4057 12.1869C65.7532 12.1999 69.9189 13.9327 72.9931 17.0069C76.0673 20.0811 77.8001 24.2468 77.8131 28.5943V61.4057C77.8001 65.7532 76.0673 69.9189 72.9931 72.9931C69.9189 76.0673 65.7532 77.8001 61.4057 77.8131H28.5943C24.2468 77.8001 20.0811 76.0673 17.0069 72.9931C13.9327 69.9189 12.1999 65.7532 12.1869 61.4057V28.5943C12.1999 24.2468 13.9327 20.0811 17.0069 17.0069C20.0811 13.9327 24.2468 12.1999 28.5943 12.1869H61.4057ZM61.4057 5.625H28.5943C15.9609 5.625 5.625 15.9609 5.625 28.5943V61.4057C5.625 74.0391 15.9609 84.375 28.5943 84.375H61.4057C74.0391 84.375 84.375 74.0391 84.375 61.4057V28.5943C84.375 15.9609 74.0391 5.625 61.4057 5.625Z" fill="#E1306C"/>
<path d="M66.3275 28.5942C65.3541 28.5942 64.4025 28.3056 63.5931 27.7648C62.7837 27.2239 62.1529 26.4552 61.7803 25.5559C61.4078 24.6565 61.3103 23.6669 61.5002 22.7122C61.6902 21.7574 62.1589 20.8804 62.8473 20.1921C63.5356 19.5037 64.4126 19.035 65.3673 18.8451C66.3221 18.6552 67.3117 18.7526 68.2111 19.1251C69.1104 19.4977 69.8791 20.1285 70.4199 20.9379C70.9608 21.7473 71.2494 22.6989 71.2494 23.6724C71.2508 24.3191 71.1244 24.9598 70.8776 25.5575C70.6307 26.1553 70.2683 26.6984 69.8109 27.1558C69.3536 27.6131 68.8105 27.9756 68.2127 28.2224C67.6149 28.4693 66.9743 28.5956 66.3275 28.5942ZM45 31.8743C47.596 31.8743 50.1337 32.6441 52.2922 34.0864C54.4507 35.5286 56.133 37.5786 57.1265 39.977C58.1199 42.3753 58.3798 45.0145 57.8734 47.5606C57.3669 50.1067 56.1168 52.4454 54.2812 54.2811C52.4456 56.1167 50.1068 57.3668 47.5607 57.8733C45.0146 58.3797 42.3755 58.1198 39.9771 57.1264C37.5787 56.1329 35.5287 54.4506 34.0865 52.2921C32.6442 50.1336 31.8744 47.5959 31.8744 44.9999C31.8781 41.5199 33.2622 38.1835 35.7229 35.7228C38.1836 33.2621 41.52 31.878 45 31.8743ZM45 25.3124C41.1062 25.3124 37.2998 26.4671 34.0622 28.6303C30.8246 30.7936 28.3012 33.8684 26.8111 37.4658C25.321 41.0632 24.9312 45.0217 25.6908 48.8407C26.4504 52.6597 28.3255 56.1677 31.0788 58.9211C33.8322 61.6744 37.3402 63.5495 41.1592 64.3091C44.9782 65.0688 48.9367 64.6789 52.5341 63.1888C56.1315 61.6987 59.2063 59.1753 61.3696 55.9377C63.5329 52.7001 64.6875 48.8937 64.6875 44.9999C64.6875 39.7785 62.6133 34.7709 58.9212 31.0787C55.229 27.3866 50.2215 25.3124 45 25.3124Z" fill="#E1306C"/>
</svg>
