<svg width="95" height="95" viewBox="0 0 102 78" fill="none" xmlns="http://www.w3.org/2000/svg">
<path d="M97.5 0H3.9C2.86566 0 1.87368 0.410892 1.14228 1.14228C0.410891 1.87368 0 2.86566 0 3.9V70.2C0 72.2687 0.821783 74.2526 2.28457 75.7154C3.74735 77.1782 5.73131 78 7.8 78H93.6C95.6687 78 97.6526 77.1782 99.1154 75.7154C100.578 74.2526 101.4 72.2687 101.4 70.2V3.9C101.4 2.86566 100.989 1.87368 100.258 1.14228C99.5263 0.410892 98.5343 0 97.5 0ZM50.7 41.5106L13.9279 7.8H87.4721L50.7 41.5106ZM36.4211 39L7.8 65.2324V12.7676L36.4211 39ZM42.1931 44.2894L48.0431 49.6762C48.7626 50.3367 49.7038 50.7032 50.6805 50.7032C51.6572 50.7032 52.5984 50.3367 53.3179 49.6762L59.1679 44.2894L87.4429 70.2H13.9279L42.1931 44.2894ZM64.9789 39L93.6 12.7628V65.2373L64.9789 39Z" fill="#EEEEEE"/>
</svg>
