<svg xmlns="http://www.w3.org/2000/svg" xmlns:xlink="http://www.w3.org/1999/xlink" width="500" zoomAndPan="magnify" viewBox="0 0 375 374.999991" height="500" preserveAspectRatio="xMidYMid meet" version="1.0"><defs><g/><clipPath id="f6c0fed3dc"><path d="M 3.859375 3.859375 L 371.742188 3.859375 L 371.742188 371 L 3.859375 371 Z M 3.859375 3.859375 " clip-rule="nonzero"/></clipPath><clipPath id="de0d3c1073"><path d="M 187.800781 3.859375 C 86.210938 3.859375 3.859375 85.894531 3.859375 187.09375 C 3.859375 288.292969 86.210938 370.328125 187.800781 370.328125 C 289.386719 370.328125 371.742188 288.292969 371.742188 187.09375 C 371.742188 85.894531 289.386719 3.859375 187.800781 3.859375 " clip-rule="nonzero"/></clipPath><clipPath id="a9039c63e1"><path d="M 28.769531 174.773438 L 346.230469 174.773438 L 346.230469 211.476562 L 28.769531 211.476562 Z M 28.769531 174.773438 " clip-rule="nonzero"/></clipPath></defs><g clip-path="url(#f6c0fed3dc)"><g clip-path="url(#de0d3c1073)"><path fill="#23252b" d="M 3.859375 3.859375 L 371.742188 3.859375 L 371.742188 371.742188 L 3.859375 371.742188 Z M 3.859375 3.859375 " fill-opacity="1" fill-rule="nonzero"/></g></g><g fill="#ffffff" fill-opacity="1"><g transform="translate(37.053752, 302.98137)"><g><path d="M 302.1875 -202.859375 C 302.832031 -202.859375 303.15625 -202.207031 303.15625 -200.90625 C 303.15625 -199.613281 302.832031 -198.96875 302.1875 -198.96875 C 286.820312 -198.96875 275.457031 -189.660156 268.09375 -171.046875 L 200.59375 -0.328125 C 200.375 0.535156 199.179688 0.96875 197.015625 0.96875 C 195.285156 0.96875 194.097656 0.535156 193.453125 -0.328125 L 151.25 -91.53125 L 115.21875 -0.328125 C 115.007812 0.535156 113.820312 0.96875 111.65625 0.96875 C 109.925781 0.96875 108.734375 0.535156 108.078125 -0.328125 L 27.265625 -175.921875 C 23.148438 -184.796875 19.195312 -190.851562 15.40625 -194.09375 C 11.625 -197.34375 6.488281 -198.96875 0 -198.96875 C -0.644531 -198.96875 -0.96875 -199.613281 -0.96875 -200.90625 C -0.96875 -202.207031 -0.644531 -202.859375 0 -202.859375 L 11.03125 -202.53125 C 17.09375 -202.101562 22.179688 -201.890625 26.296875 -201.890625 C 35.160156 -201.890625 44.351562 -202.101562 53.875 -202.53125 C 57.125 -202.75 61.34375 -202.859375 66.53125 -202.859375 C 67.1875 -202.859375 67.515625 -202.207031 67.515625 -200.90625 C 67.515625 -199.613281 67.1875 -198.96875 66.53125 -198.96875 C 60.257812 -198.96875 55.660156 -198.265625 52.734375 -196.859375 C 49.816406 -195.453125 48.359375 -193.015625 48.359375 -189.546875 C 48.359375 -186.304688 49.65625 -181.765625 52.25 -175.921875 L 119.4375 -31.8125 L 147.03125 -100.9375 L 112.296875 -175.921875 C 108.617188 -184.140625 104.832031 -190.035156 100.9375 -193.609375 C 97.039062 -197.179688 92.28125 -198.96875 86.65625 -198.96875 C 86.007812 -198.96875 85.6875 -199.613281 85.6875 -200.90625 C 85.6875 -202.207031 86.007812 -202.859375 86.65625 -202.859375 L 97.703125 -202.53125 C 102.890625 -202.101562 107.539062 -201.890625 111.65625 -201.890625 C 119.007812 -201.890625 126.148438 -202.101562 133.078125 -202.53125 C 135.242188 -202.75 138.164062 -202.859375 141.84375 -202.859375 C 142.488281 -202.859375 142.8125 -202.207031 142.8125 -200.90625 C 142.8125 -199.613281 142.488281 -198.96875 141.84375 -198.96875 C 137.945312 -198.96875 135.1875 -198.585938 133.5625 -197.828125 C 131.9375 -197.066406 131.125 -195.710938 131.125 -193.765625 C 131.125 -191.390625 133.179688 -185.441406 137.296875 -175.921875 L 159.375 -128.53125 L 176.890625 -172.671875 C 179.703125 -179.160156 181.109375 -184.570312 181.109375 -188.90625 C 181.109375 -195.613281 176.78125 -198.96875 168.125 -198.96875 C 167.695312 -198.96875 167.484375 -199.613281 167.484375 -200.90625 C 167.484375 -202.207031 167.695312 -202.859375 168.125 -202.859375 L 175.265625 -202.53125 C 179.160156 -202.101562 183.921875 -201.890625 189.546875 -201.890625 C 193.660156 -201.890625 198.53125 -202.101562 204.15625 -202.53125 L 217.140625 -202.859375 C 217.578125 -202.859375 217.796875 -202.207031 217.796875 -200.90625 C 217.796875 -199.613281 217.578125 -198.96875 217.140625 -198.96875 C 210.003906 -198.96875 203.726562 -196.859375 198.3125 -192.640625 C 192.90625 -188.421875 188.253906 -181.222656 184.359375 -171.046875 L 163.59375 -119.4375 L 204.8125 -31.8125 L 260.3125 -171.703125 C 262.039062 -176.460938 262.90625 -180.570312 262.90625 -184.03125 C 262.90625 -193.988281 255.113281 -198.96875 239.53125 -198.96875 C 238.882812 -198.96875 238.5625 -199.613281 238.5625 -200.90625 C 238.5625 -202.207031 238.882812 -202.859375 239.53125 -202.859375 L 253.5 -202.53125 C 260.851562 -202.101562 267.453125 -201.890625 273.296875 -201.890625 C 277.835938 -201.890625 282.921875 -202.101562 288.546875 -202.53125 Z M 302.1875 -202.859375 "/></g></g></g><g clip-path="url(#a9039c63e1)"><path fill="#23252b" d="M 28.769531 174.773438 L 346.394531 174.773438 L 346.394531 212.140625 L 28.769531 212.140625 Z M 28.769531 174.773438 " fill-opacity="1" fill-rule="nonzero"/></g><g fill="#ffffff" fill-opacity="1"><g transform="translate(133.716273, 205.411172)"><g><path d="M 17.453125 -3.371094 C 18.851562 -7.632812 15.046875 -11.460938 11.386719 -15.191406 C 7.898438 -18.730469 4.574219 -22.101562 6.1875 -25.328125 C 7.390625 -27.78125 11.050781 -27.519531 13.121094 -27.132812 C 18.683594 -26.074219 24.796875 -22.125 25.039062 -19.453125 C 25.109375 -18.488281 24.363281 -17.695312 22.773438 -17.09375 C 20.558594 -16.492188 18.25 -16.371094 15.984375 -16.683594 C 15.648438 -16.730469 15.335938 -16.492188 15.289062 -16.15625 C 15.238281 -15.816406 15.480469 -15.503906 15.816406 -15.433594 C 18.296875 -15.070312 20.800781 -15.238281 23.230469 -15.914062 C 25.929688 -16.925781 26.386719 -18.464844 26.289062 -19.550781 C 25.976562 -23.207031 19.066406 -27.277344 13.363281 -28.359375 C 9.171875 -29.15625 6.234375 -28.265625 5.054688 -25.878906 C 3.035156 -21.859375 6.835938 -18.007812 10.496094 -14.300781 C 13.890625 -10.859375 17.40625 -7.292969 16.273438 -3.753906 C 15.550781 -1.515625 11.773438 -0.722656 8.59375 -0.9375 C 5.320312 -1.15625 2.746094 -2.335938 2.480469 -3.730469 C 2.335938 -4.476562 2.71875 -6.5 9.148438 -9.4375 C 9.339844 -9.535156 9.484375 -9.726562 9.507812 -9.96875 C 9.535156 -10.183594 9.4375 -10.425781 9.246094 -10.542969 C 9.050781 -10.664062 8.8125 -10.6875 8.617188 -10.59375 C 3.296875 -8.160156 0.820312 -5.777344 1.226562 -3.515625 C 1.683594 -1.011719 5.441406 0.121094 8.523438 0.3125 C 8.882812 0.335938 9.246094 0.359375 9.605469 0.359375 C 12.878906 0.359375 16.5625 -0.601562 17.453125 -3.371094 Z M 17.453125 -3.371094 "/></g></g></g><g fill="#ffffff" fill-opacity="1"><g transform="translate(154.224187, 205.411172)"><g><path d="M 20.125 -5.824219 C 19.886719 -6.089844 19.476562 -6.113281 19.210938 -5.875 C 19.140625 -5.800781 11.988281 0.625 7.558594 -2.289062 C 5.800781 -3.441406 5.367188 -6.234375 5.367188 -6.257812 C 5.34375 -6.546875 5.128906 -6.765625 4.839844 -6.8125 C 4.574219 -6.835938 4.285156 -6.691406 4.164062 -6.453125 C 3.035156 -3.949219 1.035156 -0.769531 0.480469 -1.132812 C 0.433594 -1.132812 0.335938 -1.226562 0.265625 -1.394531 C -0.0234375 -2.191406 0.0703125 -3.058594 0.480469 -3.804688 C 1.394531 -5.683594 3.082031 -7.03125 5.105469 -7.535156 C 5.320312 -7.582031 5.488281 -7.753906 5.5625 -7.96875 C 5.632812 -8.183594 5.5625 -8.425781 5.417969 -8.59375 C 5.25 -8.738281 5.03125 -8.8125 4.816406 -8.761719 C 2.40625 -8.183594 0.410156 -6.546875 -0.675781 -4.332031 C -1.25 -3.25 -1.324219 -1.949219 -0.867188 -0.820312 C -0.648438 -0.265625 -0.121094 0.121094 0.480469 0.121094 L 0.503906 0.121094 C 1.683594 0.0976562 3.152344 -1.371094 4.164062 -2.960938 C 4.285156 -3.152344 4.503906 -3.25 4.71875 -3.226562 C 4.933594 -3.226562 5.128906 -3.105469 5.222656 -2.914062 C 5.632812 -2.238281 6.1875 -1.660156 6.863281 -1.25 C 12.109375 2.238281 19.742188 -4.644531 20.078125 -4.933594 C 20.199219 -5.054688 20.269531 -5.222656 20.269531 -5.367188 C 20.296875 -5.539062 20.222656 -5.707031 20.125 -5.824219 Z M 20.125 -5.824219 "/></g></g></g><g fill="#ffffff" fill-opacity="1"><g transform="translate(173.673007, 205.411172)"><g><path d="M 21.042969 -5.996094 C 20.898438 -6.089844 20.753906 -6.164062 20.585938 -6.164062 C 20.414062 -6.140625 20.246094 -6.066406 20.152344 -5.945312 C 20.078125 -5.898438 14.78125 -0.242188 10.183594 -2.09375 C 9.195312 -2.625 8.402344 -3.417969 7.847656 -4.40625 C 7.65625 -4.71875 7.414062 -5.03125 7.125 -5.320312 C 6.8125 -5.707031 6.332031 -5.921875 5.824219 -5.945312 C 4.597656 -6.042969 3.105469 -5.222656 1.324219 -3.539062 C 1.277344 -3.492188 1.203125 -3.46875 1.132812 -3.515625 C 1.058594 -3.539062 1.011719 -3.636719 1.035156 -3.707031 L 1.566406 -6.066406 C 1.660156 -6.402344 1.445312 -6.765625 1.109375 -6.835938 C 0.769531 -6.910156 0.433594 -6.691406 0.335938 -6.355469 L -0.867188 -1.082031 C -0.9375 -0.792969 -0.792969 -0.503906 -0.53125 -0.386719 C -0.265625 -0.242188 0.046875 -0.3125 0.242188 -0.53125 C 3.46875 -4.308594 5.105469 -4.671875 5.683594 -4.695312 C 6.257812 -4.71875 6.621094 -3.972656 6.8125 -3.683594 C 7.488281 -2.503906 8.5 -1.539062 9.703125 -0.9375 C 15.09375 1.25 20.824219 -4.839844 21.066406 -5.105469 C 21.304688 -5.34375 21.28125 -5.753906 21.042969 -5.996094 Z M 21.042969 -5.996094 "/></g></g></g><g fill="#ffffff" fill-opacity="1"><g transform="translate(193.723581, 205.411172)"><g><path d="M 16.515625 -6.546875 C 16.273438 -6.789062 15.867188 -6.789062 15.625 -6.523438 C 15.578125 -6.476562 9.050781 0.0976562 4.71875 -1.539062 C 2.792969 -2.289062 1.972656 -4.527344 1.660156 -6.742188 C 2.09375 -7.800781 2.816406 -9.558594 3.492188 -11.53125 C 3.5625 -11.773438 3.636719 -11.796875 3.925781 -11.820312 C 7.175781 -12.0625 10.402344 -12.183594 12.300781 -12.183594 C 12.664062 -12.183594 12.929688 -12.472656 12.929688 -12.808594 C 12.929688 -13.167969 12.664062 -13.433594 12.300781 -13.433594 C 10.472656 -13.433594 7.464844 -13.289062 4.382812 -13.121094 C 4.261719 -13.097656 4.042969 -13.167969 4.214844 -13.601562 C 5.367188 -16.902344 6.1875 -20.246094 5.683594 -21.257812 C 5.175781 -22.269531 4.503906 -22.292969 4.164062 -22.222656 C 2.382812 -21.882812 1.082031 -17.261719 0.503906 -13.480469 C 0.457031 -13.144531 0.289062 -12.855469 -0.0234375 -12.832031 C -3.804688 -12.542969 -6.910156 -12.328125 -6.957031 -12.328125 C -7.320312 -12.300781 -7.582031 -12.011719 -7.558594 -11.652344 C -7.558594 -11.316406 -7.269531 -11.027344 -6.910156 -11.050781 L -6.863281 -11.050781 C -6.789062 -11.050781 -3.875 -11.265625 -0.242188 -11.53125 C -0.121094 -11.554688 0 -11.53125 0.0976562 -11.4375 C 0.191406 -11.363281 0.265625 -11.242188 0.265625 -11.121094 C -0.0976562 -5.394531 1.347656 -1.46875 4.261719 -0.359375 C 4.886719 -0.144531 5.539062 -0.0234375 6.210938 -0.0234375 C 10.976562 -0.0234375 16.273438 -5.394531 16.539062 -5.632812 C 16.660156 -5.753906 16.707031 -5.921875 16.707031 -6.089844 C 16.707031 -6.257812 16.636719 -6.429688 16.515625 -6.546875 Z M 1.78125 -13.53125 C 2.335938 -17.191406 3.441406 -20.078125 4.09375 -20.824219 C 4.164062 -20.871094 4.261719 -20.898438 4.359375 -20.871094 C 4.429688 -20.847656 4.503906 -20.800781 4.550781 -20.703125 C 4.839844 -20.078125 4.019531 -17.019531 2.792969 -13.386719 C 2.746094 -13.167969 2.574219 -13 2.335938 -12.976562 C 2.214844 -12.953125 2.09375 -12.953125 1.949219 -12.953125 C 1.710938 -12.953125 1.757812 -13.335938 1.78125 -13.507812 Z M 1.492188 -9.75 C 1.25 -9.75 1.347656 -11.4375 1.566406 -11.675781 C 1.757812 -11.796875 2 -11.820312 2.191406 -11.699219 C 2.40625 -11.507812 1.757812 -9.75 1.492188 -9.75 Z M 1.492188 -9.75 "/></g></g></g><g fill="#ffffff" fill-opacity="1"><g transform="translate(209.104519, 205.411172)"><g><path d="M 17.550781 -6.835938 C 17.429688 -6.957031 17.285156 -7.003906 17.117188 -7.003906 C 16.949219 -7.003906 16.78125 -6.957031 16.660156 -6.835938 C 13.769531 -3.949219 9.679688 -2.625 5.65625 -3.296875 C 5.34375 -3.371094 5.128906 -3.660156 5.175781 -3.972656 C 5.367188 -5.128906 5.273438 -6.308594 4.597656 -6.691406 C 4.164062 -6.933594 3.515625 -6.957031 2.746094 -5.65625 C 2.457031 -5.222656 2.359375 -4.695312 2.457031 -4.1875 C 2.574219 -3.683594 2.890625 -3.226562 3.324219 -2.960938 C 3.585938 -2.746094 3.273438 -2.382812 3.105469 -2.214844 C 2.648438 -1.660156 1.855469 -1.566406 1.300781 -2 C 0.601562 -2.3125 0.289062 -3.082031 0.554688 -3.78125 C 0.867188 -5.054688 2.117188 -6.164062 2.574219 -6.164062 C 2.914062 -6.164062 3.203125 -6.453125 3.203125 -6.789062 C 3.226562 -7.125 2.9375 -7.414062 2.601562 -7.4375 L 2.574219 -7.4375 C 1.371094 -7.4375 -0.242188 -5.800781 -0.675781 -4.09375 C -1.082031 -2.839844 -0.503906 -1.46875 0.699219 -0.890625 C 1.15625 -0.625 1.660156 -0.503906 2.191406 -0.480469 C 3.226562 -0.53125 4.140625 -1.15625 4.574219 -2.117188 C 4.621094 -2.191406 4.742188 -2.238281 4.839844 -2.214844 C 7.898438 -1.300781 13.480469 -1.878906 17.550781 -5.921875 C 17.671875 -6.042969 17.742188 -6.210938 17.742188 -6.378906 C 17.742188 -6.546875 17.671875 -6.71875 17.550781 -6.835938 Z M 3.925781 -4.09375 C 3.660156 -4.332031 3.609375 -4.71875 3.828125 -5.007812 C 3.898438 -5.128906 3.949219 -5.199219 3.996094 -5.273438 C 4.019531 -4.886719 3.996094 -4.476562 3.925781 -4.09375 Z M 3.925781 -4.09375 "/></g></g></g><g fill="#ffffff" fill-opacity="1"><g transform="translate(225.737109, 205.411172)"><g><path d="M 16.515625 -6.667969 C 16.394531 -6.789062 16.25 -6.835938 16.082031 -6.835938 C 15.914062 -6.835938 15.746094 -6.789062 15.625 -6.667969 C 13.3125 -4.476562 10.472656 -2.9375 7.367188 -2.191406 C 7.246094 -2.144531 7.101562 -2.191406 7.03125 -2.289062 C 6.957031 -2.40625 6.933594 -2.527344 7.003906 -2.648438 C 7.4375 -3.492188 7.34375 -4.503906 6.789062 -5.273438 C 6.453125 -5.730469 6.019531 -6.113281 5.511719 -6.402344 C 4.839844 -6.863281 4.09375 -7.390625 4.070312 -7.945312 C 4.09375 -8.257812 4.214844 -8.546875 4.429688 -8.789062 L 5.730469 -10.015625 C 5.96875 -10.257812 5.996094 -10.640625 5.777344 -10.882812 C 5.5625 -11.148438 5.199219 -11.195312 4.910156 -10.976562 C 4.40625 -10.59375 3.925781 -10.160156 3.515625 -9.652344 L -0.191406 -6.1875 C -0.359375 -6.042969 -0.433594 -5.800781 -0.386719 -5.585938 C -0.335938 -5.34375 -0.167969 -5.175781 0.046875 -5.105469 C 0.265625 -5.054688 0.503906 -5.105469 0.675781 -5.273438 L 2.503906 -6.980469 C 2.601562 -7.078125 2.71875 -7.101562 2.839844 -7.101562 C 2.960938 -7.078125 3.058594 -7.003906 3.105469 -6.910156 C 3.5625 -6.285156 4.140625 -5.753906 4.789062 -5.367188 C 5.152344 -5.152344 5.464844 -4.910156 5.730469 -4.597656 C 5.96875 -4.332031 6.089844 -3.972656 6.019531 -3.609375 C 5.945312 -3.25 5.730469 -2.9375 5.417969 -2.769531 C 3.875 -1.902344 1.925781 -2.3125 0.867188 -3.730469 C 0.699219 -3.996094 0.3125 -4.09375 0.0234375 -3.898438 C -0.265625 -3.730469 -0.359375 -3.371094 -0.191406 -3.058594 C 0.601562 -1.683594 2.023438 -0.792969 3.609375 -0.675781 C 4.019531 -0.601562 4.40625 -0.578125 4.816406 -0.578125 C 8.882812 -0.578125 13.890625 -3.128906 16.515625 -5.777344 C 16.757812 -6.019531 16.757812 -6.429688 16.515625 -6.667969 Z M 16.515625 -6.667969 "/></g></g></g></svg>